<?xml version="1.0" encoding="utf-8"?>
<!-- Generator: Adobe Illustrator 24.3.0, SVG Export Plug-In . SVG Version: 6.00 Build 0)  -->
<svg version="1.1" id="Layer_1" xmlns="http://www.w3.org/2000/svg" xmlns:xlink="http://www.w3.org/1999/xlink" x="0px" y="0px"
	 viewBox="0 0 504 504" style="enable-background:new 0 0 504 504;" xml:space="preserve">
<style type="text/css">
	.st0{fill:#FFFFFF;}
</style>
<path class="st0" d="M252,0C112.9,0,0,112.8,0,252s112.8,252,252,252s252-112.8,252-252S391.2,0,252,0z M228.1,437.8
	c-44.2,0-76.9-12-76.9-12V350c0,0,47.8,11.4,65.5,11.4c22.3,0,36.4-6.2,36.4-30.1c0-13.5-10.9-24.4-25.5-35.9l-24.9-20.3
	c-23.9-19.2-53.5-45.7-53.5-101.9c0-86.8,65.5-109.6,118.5-109.6c44.7,0,75.3,12,75.3,12v73.8c0,0-36.9-10.9-65-10.9
	c-19.2,0-31.2,9.3-31.2,29.1c0,18.7,13.5,28.1,30.1,40.5l24.5,18.2c26,19.2,50.4,46.2,50.4,101.9
	C351.8,423.8,286.8,437.8,228.1,437.8z"/>
</svg>
